<?xml version="1.0" encoding="UTF-8"?>
<svg width="18px" height="18px" viewBox="0 0 18 18" version="1.1" xmlns="http://www.w3.org/2000/svg" xmlns:xlink="http://www.w3.org/1999/xlink">
    <!-- Generator: Sketch 51.3 (57544) - http://www.bohemiancoding.com/sketch -->
    <title>Google Chrome</title>
    <desc>Created with Sketch.</desc>
    <defs></defs>
    <g id="Icons" stroke="none" stroke-width="1" fill="none" fill-rule="evenodd">
        <g transform="translate(-430.000000, -329.000000)" fill="#000000" id="Google-Chrome">
            <path d="M435.386435,336.59691 C436.124181,334.819732 437.793912,333.93516 439.054675,333.933375 C439.0324,333.936053 439.185652,333.95569 447.092372,333.95569 C444.308002,328.600058 439.061803,329.007086 439.061803,329.007086 C433.755908,329.215956 431.678099,333.092541 431.678099,333.092541 L435.338321,336.689741 L435.386435,336.59691 Z M435.229619,339.196177 C434.174677,337.365443 432.22339,334.04138 431.678099,333.092541 C428.114105,338.146473 431.335065,342.574688 431.335065,342.574688 C434.075776,346.923462 438.189516,346.992192 438.455924,346.992192 L439.643625,342.063225 C437.638879,342.35957 435.762436,341.10546 435.229619,339.196177 L435.229619,339.196177 Z M447.092372,333.95569 C447.226913,334.231505 449.215622,337.908147 446.842002,342.432764 C446.842002,342.432764 444.411358,347.218914 438.455924,346.992192 C439.013689,346.0255 441.027346,342.528273 442.065359,340.726995 C443.645099,338.897154 442.975959,336.512112 442.19099,335.487401 L447.092372,333.95569 Z M442.368298,338.124158 C442.368298,339.953999 440.887459,341.440187 439.058239,341.440187 C437.231692,341.440187 435.74818,339.953999 435.74818,338.124158 C435.74818,336.294317 437.229019,334.808129 439.058239,334.808129 C440.884786,334.808129 442.368298,336.291639 442.368298,338.124158 Z"></path>
        </g>
    </g>
</svg>