<?xml version="1.0" encoding="UTF-8"?>
<svg width="17px" height="18px" viewBox="0 0 17 18" version="1.1" xmlns="http://www.w3.org/2000/svg" xmlns:xlink="http://www.w3.org/1999/xlink">
    <!-- Generator: Sketch 51.3 (57544) - http://www.bohemiancoding.com/sketch -->
    <title>Edge</title>
    <desc>Created with Sketch.</desc>
    <defs></defs>
    <g id="Icons" stroke="none" stroke-width="1" fill="none" fill-rule="evenodd">
        <g transform="translate(-392.000000, -360.000000)" fill="#000000" fill-rule="nonzero" id="Edge">
            <path d="M398.427052,364.438914 C397.706286,365.220381 397.345837,366.182176 397.225753,367.204059 C399.388117,367.204059 401.49044,367.204059 403.592763,367.204059 C403.592763,367.02373 403.592763,366.903489 403.592763,366.723161 C403.532721,366.061935 403.412571,365.400709 403.052188,364.799571 C402.571655,364.018104 401.790781,363.59736 400.889824,363.477119 C399.568375,363.236704 398.306968,363.477119 397.105669,363.958017 C395.303688,364.619243 393.802047,365.701279 392.600682,367.143971 C392.420491,367.384387 392.240299,367.684956 392,367.985525 C392,367.805197 392,367.74511 392.060042,367.624869 C392.300275,365.94176 392.900958,364.31874 394.042215,362.996222 C395.36373,361.433354 397.045561,360.471559 399.087842,360.110903 C401.070015,359.810334 402.932104,360.110903 404.674044,361.132785 C406.295834,362.034493 407.377049,363.417032 408.037774,365.160294 C408.398157,366.122089 408.578348,367.204125 408.638456,368.226007 C408.638456,368.887233 408.638456,369.548459 408.638456,370.209685 C408.638456,370.269772 408.638456,370.329926 408.638456,370.4501 C404.854302,370.4501 401.130189,370.4501 397.345969,370.4501 C397.345969,371.351808 397.64631,372.193362 398.246992,372.854588 C398.967758,373.636055 399.928824,373.996711 400.88989,374.17704 C403.052254,374.477609 405.034493,374.116952 406.896516,373.034916 C406.956558,373.034916 407.016666,372.974829 407.016666,372.974829 C407.016666,372.974829 407.016666,372.974829 407.076708,372.974829 C407.076708,373.034916 407.076708,373.09507 407.076708,373.155157 C407.076708,374.297281 407.076708,375.439404 407.076708,376.581527 C407.076708,376.701768 407.016666,376.761856 406.896516,376.821943 C405.575068,377.483169 404.133469,377.903979 402.631829,377.964066 C401.670764,378.024154 400.709698,378.024154 399.80874,377.843825 C396.985651,377.242687 394.703071,375.198922 394.162497,372.253384 C393.561814,368.887101 395.183604,365.821387 398.367142,364.438848 C398.36701,364.438914 398.36701,364.438914 398.427052,364.438914 Z"></path>
        </g>
    </g>
</svg>