<?xml version="1.0" encoding="UTF-8"?>
<svg width="19px" height="18px" viewBox="0 0 19 18" version="1.1" xmlns="http://www.w3.org/2000/svg" xmlns:xlink="http://www.w3.org/1999/xlink">
    <!-- Generator: Sketch 51.3 (57544) - http://www.bohemiancoding.com/sketch -->
    <title>Shape</title>
    <desc>Created with Sketch.</desc>
    <defs></defs>
    <g id="Icons" stroke="none" stroke-width="1" fill="none" fill-rule="evenodd">
        <g transform="translate(-429.000000, -360.000000)" fill="#000000" fill-rule="nonzero" id="Shape">
            <path d="M447.301184,366.75973 C447.218274,367.394247 447.127749,367.720812 447.036379,367.742809 C447.036379,367.742809 447.00423,364.348562 445.878172,363.222505 C446.07022,365.2022 445.88071,364.4044 445.88071,364.413706 C444.352792,361.778342 441.501692,360 438.242809,360 C435.520304,359.999154 433.083756,361.237733 431.462775,363.178511 C431.450085,363.167513 431.435702,363.153977 431.418782,363.137902 C431.164975,362.906092 431.019458,361.792725 431.019458,361.792725 C431.018612,361.788494 431.01692,361.78511 431.01692,361.781726 C431.01692,361.778342 431.015228,361.774958 431.015228,361.769882 C431.015228,361.76819 431.015228,361.765652 431.013536,361.763114 C431.010998,361.764806 431.010152,361.76819 431.006768,361.769882 C431.003384,361.774112 431.001692,361.77665 430.998308,361.780034 C430.994924,361.782572 430.993232,361.787648 430.989848,361.790187 C430.986464,361.793571 430.983926,361.797801 430.980541,361.800339 C430.978849,361.803723 430.975465,361.807953 430.972081,361.810491 C430.968697,361.813875 430.966159,361.818105 430.963621,361.820643 C430.960237,361.824027 430.957699,361.828258 430.953469,361.830796 C430.950931,361.835026 430.947546,361.837564 430.945008,361.840948 C430.94247,361.845178 430.939086,361.848562 430.935702,361.851946 C430.933164,361.85533 430.930626,361.858714 430.927242,361.862099 C430.924704,361.865483 430.92132,361.868867 430.918782,361.872251 C430.915398,361.875635 430.91286,361.879019 430.909475,361.882403 C430.906937,361.886633 430.904399,361.889171 430.900169,361.893401 C430.900169,361.893401 430.426396,362.516075 430.258883,363.19374 C430.147208,363.730965 430.257191,363.200508 430.255499,363.203046 C430.254653,363.20643 430.254653,363.211506 430.253807,363.21489 C430.252961,363.218274 430.252115,363.221659 430.251269,363.225043 C430.250423,363.225043 430.250423,363.225043 430.250423,363.225043 C430.109983,363.782572 430.041455,364.446701 430.049915,365.225043 C430.043993,365.231811 430.037225,365.236887 430.032149,365.243655 C430.032149,365.243655 429.19797,366.148054 429.059222,367.116752 C429.032149,367.308799 429.015228,367.423858 429.005922,367.486464 C429.005922,367.488156 429.005922,367.490694 429.005922,367.49154 C429.00423,367.520305 429.000846,367.54907 429,367.577834 C429.002538,367.573604 429.005922,367.569374 429.00846,367.565144 C429.010152,367.637902 429.017766,367.709814 429.036379,367.775804 L429.537225,367.368021 C429.530457,367.416244 429.520305,367.462775 429.513536,367.511845 C429.354484,367.952623 429.241117,368.41286 429.184433,368.901861 C429.020305,370.385787 429.340102,371.857022 430.132826,373.312183 C430.132826,373.312183 430.450931,373.884095 430.64467,374.155668 C430.669205,374.194586 430.691201,374.232657 430.718274,374.271574 L430.724196,374.27242 C432.380711,376.533841 435.037225,378 438.032995,378 C440.684433,378 443.066836,376.851946 444.728426,375.021997 L444.760575,375.022843 C444.870558,374.888325 444.971235,374.751269 445.075296,374.615059 C445.351945,374.27242 445.607445,373.910322 445.834179,373.529611 L445.813028,373.531303 C446.523688,372.365482 446.989847,371.164129 447.201353,369.923858 C447.505922,368.701354 447.539763,367.646362 447.301184,366.75973 Z M431.451777,363.192894 C431.449239,363.18951 431.447546,363.186972 431.445854,363.183587 C431.443316,363.180203 431.440778,363.175127 431.439086,363.171743 C431.435702,363.168359 431.43401,363.164975 431.431472,363.161591 C431.42978,363.157361 431.427242,363.153131 431.42555,363.148901 C431.42555,363.148901 431.441624,363.163283 431.461083,363.180203 C431.458545,363.18528 431.455161,363.188664 431.451777,363.192894 Z M444.756345,366.356176 C444.568528,366.064298 444.320643,365.873097 444.00423,365.777496 C444.395939,367.298647 444.434856,368.554146 444.117597,369.543993 C443.900169,368.884095 443.700507,368.488156 443.521996,368.349408 C443.769881,370.386633 443.43401,371.894247 442.517766,372.876481 C442.692047,372.277496 442.761421,371.785956 442.721658,371.399323 C441.64467,373.011844 440.417935,373.846024 439.046531,373.898477 C438.502538,373.892555 437.990694,373.810491 437.50846,373.654822 C437.499154,373.654822 437.488155,373.65313 437.478849,373.65313 C437.431472,373.637902 437.384941,373.620135 437.338409,373.602369 C437.338409,373.602369 437.338409,373.602369 437.337563,373.601523 C437.296954,373.586295 437.256345,373.571066 437.216582,373.5533 C437.176819,373.536379 437.137902,373.519459 437.098985,373.500846 C437.060914,373.48308 437.021996,373.467851 436.983079,373.448393 C436.9467,373.430626 436.910321,373.410322 436.873096,373.391709 C436.836717,373.373943 436.798646,373.35533 436.763959,373.336718 C436.728426,373.318105 436.694585,373.296108 436.660744,373.275804 C436.625211,373.256345 436.590524,373.236041 436.557529,373.21489 C436.522842,373.195432 436.490694,373.174281 436.457699,373.152284 C436.424704,373.13198 436.393401,373.109137 436.361252,373.087141 C436.329103,373.065144 436.296954,373.043993 436.264805,373.021997 C436.234348,372.999154 436.204738,372.975465 436.174281,372.952623 C436.14467,372.92978 436.113367,372.906938 436.084602,372.883249 C436.054145,372.85956 436.025381,372.835872 435.996616,372.811337 C435.967851,372.788494 435.939932,372.762267 435.911167,372.738579 C435.883249,372.71489 435.854484,372.691201 435.826565,372.664975 C435.799492,372.641286 435.773265,372.614213 435.746193,372.588833 C435.71912,372.565144 435.692047,372.538917 435.666667,372.513537 C435.645516,372.493232 435.624365,372.473773 435.604061,372.453469 C435.612521,372.455161 435.620981,372.455161 435.629441,372.455161 C435.650592,372.456853 435.670897,372.457699 435.692047,372.459391 C435.711506,372.460237 435.732656,372.461083 435.754653,372.461929 C435.774958,372.463621 435.795262,372.464467 435.815567,372.465313 C435.837563,372.467005 435.857868,372.468697 435.877326,372.468697 C435.899323,372.469543 435.919628,372.472081 435.939932,372.472081 C435.961929,372.472081 435.983925,372.470389 436.005076,372.472081 C436.026227,372.472081 436.047377,372.469543 436.069374,372.469543 C436.090524,372.469543 436.111675,372.469543 436.133672,372.469543 C436.153976,372.468697 436.175973,372.469543 436.197969,372.468697 C436.21912,372.467851 436.240271,372.467851 436.261421,372.467005 C436.284264,372.465313 436.30626,372.463621 436.327411,372.461929 C436.349408,372.460237 436.373096,372.457699 436.395093,372.456853 C436.416243,372.455161 436.43824,372.453469 436.459391,372.450931 C436.482233,372.449239 436.50423,372.448393 436.526227,372.446701 C436.549069,372.443317 436.571066,372.441624 436.593908,372.439086 C436.616751,372.436548 436.639594,372.431472 436.662436,372.428088 C436.684433,372.424704 436.707276,372.422166 436.730118,372.417936 C436.752961,372.415398 436.774958,372.411168 436.7978,372.40863 C436.820643,372.404399 436.844331,372.401861 436.866328,372.397631 C436.890017,372.393401 436.913705,372.387479 436.936548,372.382403 C436.959391,372.378173 436.983079,372.371405 437.006768,372.367174 C437.031303,372.361252 437.054991,372.356176 437.077834,372.350254 C437.101523,372.345178 437.126057,372.340948 437.148054,372.335026 C437.172589,372.328257 437.196277,372.322335 437.220812,372.315567 C437.243655,372.308799 437.269881,372.300339 437.29357,372.29357 C437.318951,372.286802 437.343485,372.280034 437.36802,372.27242 C437.391709,372.264806 437.417089,372.258883 437.440778,372.251269 C437.466159,372.242809 437.49154,372.233503 437.516074,372.225042 C437.541455,372.21489 437.568528,372.20643 437.593062,372.196278 C437.618443,372.186971 437.64467,372.176819 437.670051,372.167513 C437.694585,372.157361 437.720812,372.149746 437.746193,372.138748 C437.773265,372.126058 437.799492,372.114213 437.825719,372.101523 C437.852792,372.089679 437.879018,372.076988 437.906937,372.064298 C437.93401,372.051608 437.960237,372.040609 437.987309,372.027919 C437.999154,372.021151 438.01269,372.016921 438.023688,372.010152 L438.073604,371.978004 L438.163282,371.919628 L438.252961,371.862098 L438.343485,371.803723 L438.43401,371.745347 L438.523688,371.687817 L438.613367,371.629442 L438.703891,371.571912 L438.79357,371.513537 L438.882402,371.455161 L438.972927,371.396785 L439.062606,371.339256 L439.152284,371.28088 L439.193739,371.254653 L439.190355,371.250423 C439.342639,371.19374 439.486463,371.197124 439.625211,371.263114 C439.911167,371.22335 440.011844,371.071066 439.916243,370.815567 C439.777496,370.624366 439.567682,370.450931 439.299492,370.299493 C438.712352,369.994078 438.100677,370.042301 437.461083,370.446701 C436.853638,370.78934 436.267343,370.77665 435.697969,370.412014 C435.324027,370.155669 434.962775,369.812183 434.616751,369.381557 L434.477157,369.178511 C434.475465,369.186125 434.475465,369.195432 434.475465,369.203046 C434.475465,369.194586 434.475465,369.185279 434.477157,369.176819 L434.477157,369.172589 C434.477157,369.166667 434.478003,369.161591 434.478003,369.154823 C434.480541,369.105753 434.484771,369.058376 434.492386,369.015229 C434.500846,368.959391 434.515228,368.907784 434.531303,368.858714 C434.557529,368.778342 434.596447,368.709814 434.643824,368.653131 C434.708122,368.577834 434.788494,368.522843 434.889171,368.489002 C434.927242,368.477158 434.967851,368.467851 435.010152,368.461083 C434.985617,368.458545 434.965313,368.457699 434.941624,368.455161 C434.877326,368.450085 434.821489,368.444163 434.769035,368.439933 C434.7022,368.43401 434.642132,368.428934 434.596447,368.42555 C434.562606,368.423012 434.533841,368.42132 434.510998,368.420474 C434.479695,368.417936 434.449238,368.41709 434.418782,368.414552 C434.369712,368.41286 434.323181,368.409476 434.275804,368.406092 C434.262267,368.406092 434.253807,368.4044 434.240271,368.403554 C434.186125,368.400169 434.139594,368.395939 434.099831,368.390017 C434.15313,368.390017 434.207276,368.389171 434.259729,368.390017 C434.337563,368.394247 434.415398,368.398477 434.494078,368.403554 C434.582064,368.407784 434.750423,368.42132 434.992386,368.442471 C435.37648,368.478004 435.815567,368.565144 436.309644,368.707276 C436.392555,368.233503 436.283418,367.737733 435.983925,367.230119 C435.983925,367.225043 435.983925,367.221658 435.983925,367.221658 C435.957699,367.162437 435.920474,367.106599 435.874788,367.052454 C435.892555,367.07022 435.909475,367.087987 435.923012,367.106599 C435.9467,367.138748 435.964467,367.170897 435.982233,367.204738 C435.988156,367.216582 435.996616,367.226735 436.000846,367.238579 C436.014382,367.225889 436.027073,367.216582 436.040609,367.203892 C436.060068,367.186125 436.07868,367.169205 436.098985,367.151439 C436.119289,367.133672 436.137902,367.116752 436.158206,367.099831 C436.177665,367.082065 436.197969,367.064298 436.217428,367.047378 C436.23604,367.029611 436.256345,367.011845 436.274958,366.994078 C436.294416,366.978004 436.313875,366.959391 436.333333,366.941625 C436.353638,366.924704 436.37225,366.911168 436.392555,366.893401 C436.412013,366.876481 436.431472,366.862098 436.451776,366.84687 C436.471235,366.82995 436.490694,366.814721 436.510152,366.798647 C436.528765,366.782572 436.549069,366.766498 436.567682,366.751269 C436.58714,366.736041 436.609137,366.718274 436.626903,366.703892 C436.646362,366.687818 436.666666,366.673435 436.686125,366.658207 C436.70643,366.642978 436.725042,366.631134 436.744501,366.615906 C436.764805,366.600677 436.784264,366.587987 436.802876,366.573604 C436.822335,366.559222 436.842639,366.54484 436.862944,366.530457 C436.882403,366.516921 436.901861,366.501692 436.92132,366.489848 C436.940778,366.475466 436.961083,366.461929 436.979695,366.449239 C437.000846,366.435702 437.018612,366.424704 437.038917,366.412014 C437.059221,366.400169 437.077834,366.388325 437.098139,366.375635 C437.117597,366.364636 437.137056,366.351946 437.156514,366.339256 C437.175973,366.327411 437.196277,366.313875 437.21489,366.302877 C437.219966,366.300339 437.225888,366.296955 437.230118,366.293571 C437.246193,366.284264 437.258883,366.274112 437.274957,366.26396 C437.294416,366.251269 437.315567,366.239425 437.333333,366.225043 C437.356176,366.20643 437.373942,366.185279 437.392555,366.163283 C437.415397,366.13621 437.43401,366.107445 437.45093,366.075296 C437.476311,366.027073 437.497462,365.975466 437.509306,365.915398 C437.513536,365.911168 437.51692,365.906938 437.521996,365.906938 L437.526227,365.902708 C437.530457,365.898477 437.538917,365.890017 437.543147,365.885787 C437.634518,365.751269 437.604061,365.642132 437.447546,365.547378 C437.123519,365.563452 436.473773,365.490694 436.466159,365.489848 C436.461929,365.488156 436.457699,365.486464 436.453469,365.484772 C435.683587,365.163283 435.258037,364.486464 435.258037,364.486464 C435.258037,364.490694 435.240271,364.467005 435.240271,364.467005 L435.215736,364.435703 C435.217428,364.43401 435.217428,364.433164 435.219966,364.432318 C435.224196,364.42978 435.225888,364.428088 435.230118,364.42555 C435.232656,364.423858 435.235194,364.42132 435.238579,364.419628 C435.240271,364.417936 435.243655,364.415398 435.247039,364.41286 C435.250423,364.410322 435.253807,364.40863 435.256345,364.406092 L435.258037,364.406092 C435.258037,364.402708 435.259729,364.40017 435.259729,364.398477 C435.260575,364.395939 435.261421,364.391709 435.261421,364.389171 C435.261421,364.385787 435.262267,364.382403 435.263959,364.379019 C435.263959,364.376481 435.251269,364.390863 435.265651,364.369713 C435.120135,363.192894 436.66582,362.418782 436.66582,362.418782 C436.66582,362.418782 434.807106,362.939087 434.228426,363.614214 L434.142978,363.620136 L434.219966,363.621828 C434.218274,363.62352 434.215736,363.625212 434.212352,363.626904 C434.209814,363.630288 434.208122,363.63198 434.205584,363.635364 C434.2022,363.637902 434.200507,363.64044 434.197123,363.642132 C434.197123,363.642132 434.194585,363.643824 434.193739,363.64467 C434.190355,363.642978 434.185279,363.642132 434.181049,363.64044 C434.169205,363.637056 434.158206,363.633672 434.146362,363.630288 C433.024535,363.35956 432.104907,363.764806 432.104907,363.764806 C432.098139,363.765652 432.092217,363.76819 432.08714,363.769882 C432.079526,363.77242 432.07445,363.774958 432.069374,363.77665 C432.06176,363.779188 432.056684,363.78088 432.050761,363.782572 C432.044839,363.78511 432.039763,363.786802 432.034687,363.788494 C431.871404,363.709814 431.725888,363.582911 431.597293,363.414552 C433.170051,361.486464 435.563452,360.252962 438.241963,360.252962 C440.312182,360.252962 442.213198,360.990694 443.696277,362.218274 C443.461083,362.100677 443.21066,362 442.94247,361.918782 C442.187817,361.69374 441.287648,361.563452 440.249577,361.532995 C440.704737,361.62352 441.092216,361.737733 441.403553,361.879865 C441.422166,361.884941 441.441624,361.893401 441.459391,361.897632 C441.900169,362.106599 442.195431,362.368021 442.334179,362.675973 C441.887479,362.593909 441.482233,362.624366 441.126057,362.763114 C443.681895,363.770728 444.894247,364.969543 444.756345,366.356176 Z"></path>
        </g>
    </g>
</svg>