<?xml version="1.0" encoding="UTF-8"?>
<svg width="18px" height="18px" viewBox="0 0 18 18" version="1.1" xmlns="http://www.w3.org/2000/svg" xmlns:xlink="http://www.w3.org/1999/xlink">
    <!-- Generator: Sketch 51.3 (57544) - http://www.bohemiancoding.com/sketch -->
    <title>Safari</title>
    <desc>Created with Sketch.</desc>
    <defs></defs>
    <g id="Icons" stroke="none" stroke-width="1" fill="none" fill-rule="evenodd">
        <g transform="translate(-470.000000, -360.000000)" fill="#000000" fill-rule="nonzero" id="Safari">
            <g transform="translate(470.000000, 360.000000)">
                <path d="M9,0.059877551 C4.06230612,0.059877551 0.059877551,4.06267347 0.059877551,9 C0.059877551,13.9376939 4.06230612,17.9401224 9,17.9401224 C13.9376939,17.9401224 17.9401224,13.9376939 17.9401224,9 C17.9401224,4.06267347 13.9376939,0.059877551 9,0.059877551 Z M9,15.9777551 C5.14616327,15.9777551 2.0222449,12.8538367 2.0222449,9 C2.0222449,5.14653061 5.14616327,2.0222449 9,2.0222449 C12.8538367,2.0222449 15.9777551,5.14653061 15.9777551,9 C15.9777551,12.8538367 12.8538367,15.9777551 9,15.9777551 Z" id="Shape"></path>
                <path d="M10.4449592,10.5059388 L9.64046939,9.87630612 C9.49481633,9.98302041 9.32381633,10.0588776 9.13169388,10.0823878 C8.53402041,10.1553061 7.99034694,9.72973469 7.91761224,9.13206122 C7.89428571,8.94012245 7.92679592,8.75571429 7.99530612,8.5887551 L7.191,7.95912245 L5.36142857,13.6484082 L10.4449592,10.5059388 Z" id="Shape"></path>
                <circle id="Oval" cx="9" cy="9" r="1"></circle>
                <path d="M8.86812245,7.91779592 C9.46579592,7.84487755 10.0094694,8.27044898 10.0822041,8.86812245 C10.1055306,9.06006122 10.0730204,9.24446939 10.0045102,9.41142857 L10.8088163,10.0410612 L12.6383878,4.35177551 L7.55504082,7.49406122 L8.35953061,8.12369388 C8.505,8.01697959 8.67618367,7.94112245 8.86812245,7.91779592 Z" id="Shape"></path>
            </g>
        </g>
    </g>
</svg>